<svg width="423" height="63" viewBox="0 0 423 63" fill="none" xmlns="http://www.w3.org/2000/svg">
<path d="M40.57 4.156V43.624L43.804 43.69V46H26.38V43.69L29.614 43.624V25.276H14.83V43.624L18.064 43.69V46H0.640008V43.69L3.87401 43.624V4.156L0.640008 4.09V1.78H18.064V4.09L14.83 4.156V22.834H29.614V4.156L26.38 4.09V1.78H43.804V4.09L40.57 4.156ZM47.8599 2.374L56.3079 0.459996V7.984L47.8599 9.238V2.374ZM56.9679 43.888L59.4099 44.086V46H45.2199V44.086L47.6619 43.888L47.4639 20.392L44.9559 20.92L44.2959 19.006L56.2419 15.31L57.1659 16.894L56.9679 43.888ZM74.6219 25.342L74.3579 43.888L80.2319 44.086V46H62.6099V44.086L65.0519 43.888L64.8539 20.26L62.3459 20.854L61.6859 18.874L72.1139 15.64L74.3579 22.702C75.8099 19.754 77.3939 17.466 79.1099 15.838C80.0779 15.486 81.2439 15.31 82.6079 15.31C84.4559 15.31 86.1939 15.64 87.8219 16.3L85.7099 24.88C84.4339 24.616 82.8059 24.374 80.8259 24.154C78.8459 23.934 77.2179 23.78 75.9419 23.692L74.6219 25.342ZM102.207 15.31C106.079 15.31 109.115 16.718 111.315 19.534C113.559 22.306 114.659 26.068 114.615 30.82L96.3988 31.414C96.7068 34.01 97.6088 35.99 99.1048 37.354C100.601 38.718 102.581 39.4 105.045 39.4C108.477 39.4 111.271 38.454 113.427 36.562L114.615 37.618C113.075 40.566 110.985 42.876 108.345 44.548C105.749 46.176 102.977 46.99 100.029 46.99C96.0248 46.99 92.8348 45.67 90.4588 43.03C88.1268 40.346 86.9608 36.738 86.9608 32.206C86.9608 29.522 87.4888 26.86 88.5448 24.22C89.6448 21.58 91.0308 19.38 92.7028 17.62C93.8468 16.96 95.3208 16.41 97.1248 15.97C98.9288 15.53 100.623 15.31 102.207 15.31ZM104.847 28.642C104.803 25.562 104.363 23.12 103.527 21.316C102.691 19.512 101.503 18.434 99.9628 18.082C98.8628 19.226 97.9608 20.832 97.2568 22.9C96.5968 24.924 96.2668 27.014 96.2668 29.17V29.368L104.847 28.642ZM177.694 15.31C180.246 15.31 182.49 15.904 184.426 17.092C186.406 18.236 187.924 19.842 188.98 21.91C190.08 23.934 190.63 26.244 190.63 28.84C190.63 31.084 190.256 33.482 189.508 36.034C188.804 38.542 187.924 40.478 186.868 41.842C186.032 43.03 184.514 44.196 182.314 45.34C180.114 46.44 178.266 46.99 176.77 46.99C175.67 46.99 173.888 46.792 171.424 46.396L171.556 60.388L176.638 60.586V62.5H159.148V60.586L161.59 60.388L161.92 20.128L159.412 20.722L158.752 18.742L168.982 15.508L171.094 23.032L177.694 15.31ZM179.542 41.974C180.642 39.466 181.192 36.408 181.192 32.8C181.192 30.776 180.862 29.016 180.202 27.52C179.542 26.024 178.662 24.88 177.562 24.088C176.506 23.296 175.362 22.9 174.13 22.9L171.226 25.804L171.358 39.202C174.262 40.566 176.99 41.49 179.542 41.974ZM205.397 25.342L205.133 43.888L211.007 44.086V46H193.385V44.086L195.827 43.888L195.629 20.26L193.121 20.854L192.461 18.874L202.889 15.64L205.133 22.702C206.585 19.754 208.169 17.466 209.885 15.838C210.853 15.486 212.019 15.31 213.383 15.31C215.231 15.31 216.969 15.64 218.597 16.3L216.485 24.88C215.209 24.616 213.581 24.374 211.601 24.154C209.621 23.934 207.993 23.78 206.717 23.692L205.397 25.342ZM232.982 15.31C236.854 15.31 239.89 16.718 242.09 19.534C244.334 22.306 245.434 26.068 245.39 30.82L227.174 31.414C227.482 34.01 228.384 35.99 229.88 37.354C231.376 38.718 233.356 39.4 235.82 39.4C239.252 39.4 242.046 38.454 244.202 36.562L245.39 37.618C243.85 40.566 241.76 42.876 239.12 44.548C236.524 46.176 233.752 46.99 230.804 46.99C226.8 46.99 223.61 45.67 221.234 43.03C218.902 40.346 217.736 36.738 217.736 32.206C217.736 29.522 218.264 26.86 219.32 24.22C220.42 21.58 221.806 19.38 223.478 17.62C224.622 16.96 226.096 16.41 227.9 15.97C229.704 15.53 231.398 15.31 232.982 15.31ZM235.622 28.642C235.578 25.562 235.138 23.12 234.302 21.316C233.466 19.512 232.278 18.434 230.738 18.082C229.638 19.226 228.736 20.832 228.032 22.9C227.372 24.924 227.042 27.014 227.042 29.17V29.368L235.622 28.642ZM257.282 21.25C257.282 22.438 257.744 23.516 258.668 24.484C259.636 25.452 261.088 26.596 263.024 27.916C265.4 29.544 267.204 31.018 268.436 32.338C269.668 33.658 270.284 35.286 270.284 37.222C270.284 38.938 269.778 40.544 268.766 42.04C267.754 43.536 266.324 44.746 264.476 45.67C262.628 46.55 260.516 46.99 258.14 46.99C255.852 46.99 253.674 46.44 251.606 45.34C249.582 44.24 248.086 42.832 247.118 41.116L252.794 36.562C254.554 39.862 256.358 42.568 258.206 44.68C258.954 44.108 259.57 43.448 260.054 42.7C260.582 41.908 260.846 41.138 260.846 40.39C260.846 39.158 260.384 38.102 259.46 37.222C258.58 36.298 257.194 35.198 255.302 33.922C253.762 32.91 252.53 32.03 251.606 31.282C250.682 30.534 249.89 29.632 249.23 28.576C248.614 27.52 248.306 26.332 248.306 25.012C248.306 23.384 248.834 21.822 249.89 20.326C250.99 18.83 252.508 17.62 254.444 16.696C256.38 15.772 258.58 15.31 261.044 15.31C262.936 15.31 264.718 15.728 266.39 16.564C268.106 17.356 269.492 18.368 270.548 19.6L265.4 24.682C263.288 21.998 260.956 19.6 258.404 17.488C257.656 18.456 257.282 19.71 257.282 21.25ZM255.104 46H255.17H255.104ZM282.676 21.25C282.676 22.438 283.138 23.516 284.062 24.484C285.03 25.452 286.482 26.596 288.418 27.916C290.794 29.544 292.598 31.018 293.83 32.338C295.062 33.658 295.678 35.286 295.678 37.222C295.678 38.938 295.172 40.544 294.16 42.04C293.148 43.536 291.718 44.746 289.87 45.67C288.022 46.55 285.91 46.99 283.534 46.99C281.246 46.99 279.068 46.44 277 45.34C274.976 44.24 273.48 42.832 272.512 41.116L278.188 36.562C279.948 39.862 281.752 42.568 283.6 44.68C284.348 44.108 284.964 43.448 285.448 42.7C285.976 41.908 286.24 41.138 286.24 40.39C286.24 39.158 285.778 38.102 284.854 37.222C283.974 36.298 282.588 35.198 280.696 33.922C279.156 32.91 277.924 32.03 277 31.282C276.076 30.534 275.284 29.632 274.624 28.576C274.008 27.52 273.7 26.332 273.7 25.012C273.7 23.384 274.228 21.822 275.284 20.326C276.384 18.83 277.902 17.62 279.838 16.696C281.774 15.772 283.974 15.31 286.438 15.31C288.33 15.31 290.112 15.728 291.784 16.564C293.5 17.356 294.886 18.368 295.942 19.6L290.794 24.682C288.682 21.998 286.35 19.6 283.798 17.488C283.05 18.456 282.676 19.71 282.676 21.25ZM280.498 46H280.564H280.498ZM330.821 39.4C333.549 39.4 336.211 38.41 338.807 36.43L339.863 37.618C338.235 40.434 336.189 42.7 333.725 44.416C331.305 46.132 328.687 46.99 325.871 46.99C321.911 46.99 318.743 45.67 316.367 43.03C314.035 40.346 312.869 36.738 312.869 32.206C312.869 29.522 313.419 26.86 314.519 24.22C315.619 21.58 317.027 19.38 318.743 17.62C320.239 16.872 321.801 16.3 323.429 15.904C325.057 15.508 326.619 15.31 328.115 15.31C330.711 15.31 333.021 16.014 335.045 17.422C337.069 18.83 338.697 20.876 339.929 23.56L332.339 27.982C331.635 26.002 330.689 24 329.501 21.976C328.313 19.952 327.279 18.566 326.399 17.818C325.255 18.918 324.265 20.524 323.429 22.636C322.637 24.704 322.241 26.838 322.241 29.038C322.241 32.426 322.989 35 324.485 36.76C325.981 38.52 328.093 39.4 330.821 39.4ZM356.6 15.31C361 15.31 364.542 16.608 367.226 19.204C369.91 21.8 371.252 25.496 371.252 30.292C371.252 32.36 370.878 34.494 370.13 36.694C369.426 38.894 368.37 40.83 366.962 42.502C365.554 43.866 363.904 44.966 362.012 45.802C360.164 46.594 358.206 46.99 356.138 46.99C351.738 46.99 348.196 45.692 345.512 43.096C342.828 40.5 341.486 36.804 341.486 32.008C341.486 29.984 341.86 27.872 342.608 25.672C343.356 23.472 344.434 21.536 345.842 19.864C347.25 18.5 348.878 17.4 350.726 16.564C352.618 15.728 354.576 15.31 356.6 15.31ZM350.99 28.84C350.99 33.02 351.804 36.144 353.432 38.212C355.104 40.28 357.546 41.512 360.758 41.908C361.066 40.588 361.308 39.114 361.484 37.486C361.66 35.858 361.748 34.516 361.748 33.46C361.748 29.236 360.912 26.112 359.24 24.088C357.612 22.02 355.214 20.788 352.046 20.392C351.738 21.756 351.474 23.252 351.254 24.88C351.078 26.508 350.99 27.828 350.99 28.84ZM422.243 44.086V46H408.119V44.086L410.561 43.888V29.962C410.561 28.026 410.055 26.53 409.043 25.474C408.075 24.374 406.711 23.802 404.951 23.758L402.509 26.2V27.322V43.888L404.885 44.086V46H390.761V44.086L393.203 43.888V29.962C393.203 28.026 392.697 26.53 391.685 25.474C390.717 24.418 389.353 23.868 387.593 23.824L385.415 26.002L385.151 43.888L387.593 44.086V46H373.403V44.086L375.845 43.888L375.647 20.26L373.139 20.854L372.479 18.874L382.907 15.64L385.217 23.032L390.695 15.178C394.083 15.178 396.701 15.86 398.549 17.224C400.441 18.588 401.651 20.7 402.179 23.56L408.053 15.112C412.101 15.112 415.071 16.102 416.963 18.082C418.899 20.062 419.867 23.142 419.867 27.322V43.888L422.243 44.086Z" fill="black"/>
<path d="M157.592 43.69V46H138.386V43.69L141.62 43.624L132.578 27.718L127.43 43.624L131.654 43.69V46H115.418V43.69L118.85 43.624L130.796 24.616L119.18 4.156L115.946 4.09V1.78H135.812V4.09L132.578 4.156L140.102 17.356L145.712 4.156L141.488 4.09V1.78H156.734V4.09L153.962 4.156L141.686 20.128L155.018 43.624L157.592 43.69Z" fill="#FF0505"/>
<path d="M299.161 38.08L308.797 35.902V45.274L299.161 46.726V38.08Z" fill="#FF0000"/>
</svg>
